HIERARCHY
ROOT hip
{
  OFFSET 0 0 0
  CHANNELS 6 Xposition Yposition Zposition Zrotation Yrotation Xrotation
  JOINT abdomen
  {
    OFFSET 0 20.6881 -0.73152
    CHANNELS 3 Zrotation Xrotation Yrotation
    JOINT chest
    {
      OFFSET 0 11.7043 -0.48768
      CHANNELS 3 Zrotation Xrotation Yrotation
      JOINT neck
      {
        OFFSET 0 22.1894 -2.19456
        CHANNELS 3 Zrotation Xrotation Yrotation
        JOINT head
        {
          OFFSET -0.24384 7.07133 1.2192
          CHANNELS 3 Zrotation Xrotation Yrotation
          JOINT leftEye
          {
            OFFSET 4.14528 8.04674 8.04672
            CHANNELS 3 Zrotation Xrotation Yrotation
            End Site
            {
              OFFSET 1 0 0
            }
          }
          JOINT rightEye
          {
            OFFSET -3.6576 8.04674 8.04672
            CHANNELS 3 Zrotation Xrotation Yrotation
            End Site
            {
              OFFSET 1 0 0
            }
          }
        }
      }
      JOINT rCollar
      {
        OFFSET -2.68224 19.2634 -4.8768
        CHANNELS 3 Zrotation Xrotation Yrotation
        JOINT rShldr
        {
          OFFSET -8.77824 -1.95073 1.46304
          CHANNELS 3 Zrotation Xrotation Yrotation
          JOINT rForeArm
          {
            OFFSET -28.1742 -1.7115 0.48768
            CHANNELS 3 Zrotation Xrotation Yrotation
            JOINT rHand
            {
              OFFSET -22.5879 0.773209 7.07136
              CHANNELS 3 Zrotation Xrotation Yrotation
              JOINT rThumb1
              {
                OFFSET -1.2192 -0.487915 3.41376
                CHANNELS 3 Zrotation Xrotation Yrotation
                JOINT rThumb2
                {
                  OFFSET -3.37035 -0.52449 3.41376
                  CHANNELS 3 Zrotation Xrotation Yrotation
                  End Site
                  {
                    OFFSET -1.78271 -1.18214 1.43049
                  }
                }
              }
              JOINT rIndex1
              {
                OFFSET -7.75947 0.938293 5.60832
                CHANNELS 3 Zrotation Xrotation Yrotation
                JOINT rIndex2
                {
                  OFFSET -2.54057 -0.884171 1.56538
                  CHANNELS 3 Zrotation Xrotation Yrotation
                  End Site
                  {
                    OFFSET -1.62519 -0.234802 1.16502
                  }
                }
              }
              JOINT rMid1
              {
                OFFSET -8.24714 1.18213 3.41376
                CHANNELS 3 Zrotation Xrotation Yrotation
                JOINT rMid2
                {
                  OFFSET -3.10165 -0.590103 1.0647
                  CHANNELS 3 Zrotation Xrotation Yrotation
                  End Site
                  {
                    OFFSET -2.48547 -0.328903 0.83742
                  }
                }
              }
              JOINT rRing1
              {
                OFFSET -8.82822 0.546677 1.51678
                CHANNELS 3 Zrotation Xrotation Yrotation
                JOINT rRing2
                {
                  OFFSET -2.60934 -0.819778 -0.0198488
                  CHANNELS 3 Zrotation Xrotation Yrotation
                  End Site
                  {
                    OFFSET -2.33842 -0.294052 0.168128
                  }
                }
              }
              JOINT rPinky1
              {
                OFFSET -8.27202 -0.0477905 -0.4584
                CHANNELS 3 Zrotation Xrotation Yrotation
                JOINT rPinky2
                {
                  OFFSET -1.82734 -0.647385 -0.700984
                  CHANNELS 3 Zrotation Xrotation Yrotation
                  End Site
                  {
                    OFFSET -1.69225 -0.51767 -0.607171
                  }
                }
              }
            }
          }
        }
      }
      JOINT lCollar
      {
        OFFSET 2.68224 19.2634 -4.8768
        CHANNELS 3 Zrotation Xrotation Yrotation
        JOINT lShldr
        {
          OFFSET 8.77824 -1.95073 1.46304
          CHANNELS 3 Zrotation Xrotation Yrotation
          JOINT lForeArm
          {
            OFFSET 28.1742 -1.7115 0.48768
            CHANNELS 3 Zrotation Xrotation Yrotation
            JOINT lHand
            {
              OFFSET 22.5879 0.773209 7.07136
              CHANNELS 3 Zrotation Xrotation Yrotation
              JOINT lThumb1
              {
                OFFSET 1.2192 -0.487915 3.41376
                CHANNELS 3 Zrotation Xrotation Yrotation
                JOINT lThumb2
                {
                  OFFSET 3.37035 -0.52449 3.41376
                  CHANNELS 3 Zrotation Xrotation Yrotation
                  End Site
                  {
                    OFFSET 1.78271 -1.18214 1.43049
                  }
                }
              }
              JOINT lIndex1
              {
                OFFSET 7.75947 0.938293 5.60832
                CHANNELS 3 Zrotation Xrotation Yrotation
                JOINT lIndex2
                {
                  OFFSET 2.54057 -0.884171 1.56538
                  CHANNELS 3 Zrotation Xrotation Yrotation
                  End Site
                  {
                    OFFSET 1.62519 -0.234802 1.16502
                  }
                }
              }
              JOINT lMid1
              {
                OFFSET 8.24714 1.18213 3.41376
                CHANNELS 3 Zrotation Xrotation Yrotation
                JOINT lMid2
                {
                  OFFSET 3.10165 -0.590103 1.0647
                  CHANNELS 3 Zrotation Xrotation Yrotation
                  End Site
                  {
                    OFFSET 2.48547 -0.328903 0.83742
                  }
                }
              }
              JOINT lRing1
              {
                OFFSET 8.82822 0.546677 1.51678
                CHANNELS 3 Zrotation Xrotation Yrotation
                JOINT lRing2
                {
                  OFFSET 2.60934 -0.819778 -0.0198488
                  CHANNELS 3 Zrotation Xrotation Yrotation
                  End Site
                  {
                    OFFSET 2.33842 -0.294052 0.168128
                  }
                }
              }
              JOINT lPinky1
              {
                OFFSET 8.27202 -0.0477905 -0.4584
                CHANNELS 3 Zrotation Xrotation Yrotation
                JOINT lPinky2
                {
                  OFFSET 1.82734 -0.647385 -0.700984
                  CHANNELS 3 Zrotation Xrotation Yrotation
                  End Site
                  {
                    OFFSET 1.69225 -0.51767 -0.607171
                  }
                }
              }
            }
          }
        }
      }
    }
  }
  JOINT rButtock
  {
    OFFSET -8.77824 4.35084 1.2192
    CHANNELS 3 Zrotation Xrotation Yrotation
    JOINT rThigh
    {
      OFFSET 0 -1.70687 -2.19456
      CHANNELS 3 Zrotation Xrotation Yrotation
      JOINT rShin
      {
        OFFSET 0 -36.8199 0.73152
        CHANNELS 3 Zrotation Xrotation Yrotation
        JOINT rFoot
        {
          OFFSET 0.73152 -45.1104 -5.12064
          CHANNELS 3 Zrotation Xrotation Yrotation
          End Site
          {
            OFFSET -1.1221 -3.69964 12.103
          }
        }
      }
    }
  }
  JOINT lButtock
  {
    OFFSET 8.77824 4.35084 1.2192
    CHANNELS 3 Zrotation Xrotation Yrotation
    JOINT lThigh
    {
      OFFSET 0 -1.70687 -2.19456
      CHANNELS 3 Zrotation Xrotation Yrotation
      JOINT lShin
      {
        OFFSET 0 -36.8199 0.73152
        CHANNELS 3 Zrotation Xrotation Yrotation
        JOINT lFoot
        {
          OFFSET -0.73152 -45.1104 -5.12064
          CHANNELS 3 Zrotation Xrotation Yrotation
          End Site
          {
            OFFSET 1.1221 -3.69964 12.103
          }
        }
      }
    }
  }
}
MOTION
Frames:	4
Frame Time:	0.00833333
116.482 80.9631 -95.851 -182.001 165.903 -163.896 11.439 -14.5734 7.19208 -2.28154 3.33981 1.73365 -1.77638 -1.83433 -2.91169 -1.77425 8.25888 -4.93311 -0.0 0.0 0.0 -0.0 0.0 0.0 2.17926e-13 -2.16265e-13 -6.99672e-13 70.6393 33.0437 8.00845 -11.4432 -5.06581 20.5374 -0.011187 -3.01841 -0.424606 -8.68482e-11 1.27607e-09 -8.76488e-10 -1.46478e-10 2.20534e-09 -1.51569e-09 -8.68474e-11 1.27607e-09 -8.76491e-10 7.73091 5.47488 0.417314 -8.68472e-11 1.27607e-09 -8.76469e-10 2.90554 0.965183 0.102902 -8.68415e-11 1.27607e-09 -8.76482e-10 10.2786 0.731801 0.0259123 -8.68478e-11 1.27607e-09 -8.76475e-10 2.22167 -0.733487 -0.20892 2.17775e-13 -2.16292e-13 -6.99971e-13 -81.6844 30.2632 10.1474 15.6038 -8.32424 -28.8407 3.10588 -43.7374 7.7285 -2.7049e-09 -5.77325e-10 -2.67377e-10 -4.65164e-09 -9.82178e-10 -5.52702e-10 -2.70491e-09 -5.77327e-10 -2.67364e-10 -7.73091 5.47488 -0.417314 -2.7049e-09 -5.77325e-10 -2.6737e-10 -2.90554 0.965183 -0.102902 -2.70491e-09 -5.77322e-10 -2.67369e-10 -10.2786 0.731801 -0.0259123 -2.70489e-09 -5.77318e-10 -2.6738e-10 -2.22167 -0.733487 0.20892 -2.03217e-16 0.0 -3.88251e-19 13.3262 -20.2981 20.1697 -0.247017 27.8237 0.0989822 0.404048 -14.6209 -1.26834 2.03217e-16 0.0 3.88251e-19 -12.2687 -54.1476 -22.6943 0.160498 32.4194 0.107681 0.333471 -6.19985 -0.834363
116.68 80.9993 -95.3786 -181.991 166.344 -163.721 11.1758 -14.6074 7.00872 -2.28748 3.27219 1.69775 -1.78266 -1.76338 -2.79247 -1.6883 8.20291 -4.70771 -0.0 0.0 0.0 -0.0 0.0 0.0 1.73899e-13 -2.53099e-13 -6.11244e-13 70.761 33.3229 8.00756 -11.4576 -5.07552 20.5651 -0.0111839 -3.01593 -0.424258 -1.26888e-10 7.95196e-10 -2.14514e-10 -2.1645e-10 1.37432e-09 -3.71322e-10 -1.26888e-10 7.95198e-10 -2.14519e-10 7.73091 5.47488 0.417314 -1.26889e-10 7.95199e-10 -2.14496e-10 2.90554 0.965183 0.102902 -1.26883e-10 7.95198e-10 -2.14508e-10 10.2786 0.731801 0.0259123 -1.26888e-10 7.95193e-10 -2.145e-10 2.22167 -0.733487 -0.20892 1.73755e-13 -2.53119e-13 -6.11546e-13 -81.5655 30.3376 10.2441 15.7676 -8.47278 -29.1844 3.13262 -43.8787 7.76706 -2.47909e-09 -4.52203e-10 -6.86043e-10 -4.24939e-09 -7.61709e-10 -1.2675e-09 -2.4791e-09 -4.52204e-10 -6.8603e-10 -7.73091 5.47488 -0.417314 -2.47909e-09 -4.52202e-10 -6.86036e-10 -2.90554 0.965183 -0.102902 -2.47911e-09 -4.52199e-10 -6.86036e-10 -10.2786 0.731801 -0.0259123 -2.47909e-09 -4.52195e-10 -6.86046e-10 -2.22167 -0.733487 0.20892 -2.03217e-16 0.0 -3.88251e-19 13.0776 -19.9336 20.3481 -0.251572 27.4847 0.0450934 0.528903 -14.6137 -1.04689 2.03217e-16 0.0 3.88251e-19 -12.5391 -54.2344 -23.1501 0.127799 31.212 0.158926 0.312591 -6.58092 -1.25095
116.878 81.0163 -94.895 -181.997 166.772 -163.546 10.9455 -14.6475 6.79751 -2.29935 3.15577 1.65283 -1.83088 -1.62799 -2.6772 -1.53699 8.11102 -4.48406 -0.0 0.0 0.0 -0.0 0.0 0.0 6.35181e-14 -2.50318e-13 -4.2967e-13 70.9209 33.6456 7.95092 -11.4816 -5.09164 20.611 -0.0113605 -3.03739 -0.427284 5.09846e-12 -1.68874e-10 8.3263e-10 9.70096e-12 -2.91694e-10 1.43918e-09 5.09923e-12 -1.68871e-10 8.32622e-10 7.73091 5.47488 0.417314 5.09456e-12 -1.68869e-10 8.32644e-10 2.90554 0.965183 0.102902 5.10209e-12 -1.68872e-10 8.32636e-10 10.2786 0.731801 0.0259123 5.09857e-12 -1.68876e-10 8.32646e-10 2.22167 -0.733487 -0.20892 6.34101e-14 -2.50322e-13 -4.29962e-13 -81.4577 30.4384 10.3947 15.9195 -8.61276 -29.5028 3.15258 -43.9839 7.79583 -1.67731e-09 -1.76418e-10 -1.3124e-09 -2.848e-09 -2.81432e-10 -2.3212e-09 -1.67731e-09 -1.76416e-10 -1.31239e-09 -7.73091 5.47488 -0.417314 -1.67731e-09 -1.76415e-10 -1.31239e-09 -2.90554 0.965183 -0.102902 -1.67732e-09 -1.76413e-10 -1.31239e-09 -10.2786 0.731801 -0.0259123 -1.6773e-09 -1.7641e-10 -1.3124e-09 -2.22167 -0.733487 0.20892 -2.03217e-16 0.0 -3.88251e-19 12.8671 -19.5783 20.5305 -0.256078 27.1652 -0.00998139 0.656292 -14.608 -0.81182 2.03217e-16 0.0 3.88251e-19 -12.772 -54.374 -23.5168 0.0934984 30.157 0.200562 0.291592 -6.97741 -1.65429
117.073 81.0224 -94.3953 -182.019 167.185 -163.378 10.7313 -14.7036 6.58356 -2.30494 3.04074 1.60542 -1.89451 -1.4718 -2.56566 -1.35803 7.99804 -4.26583 -0.0 0.0 0.0 -0.0 0.0 0.0 -6.05142e-14 -2.05867e-13 -2.42333e-13 71.0926 33.9779 7.86688 -11.5132 -5.11298 20.6717 -0.0117191 -3.0851 -0.434009 3.04487e-10 -1.17795e-09 1.74796e-09 5.24956e-10 -2.03555e-09 3.02213e-09 3.04489e-10 -1.17794e-09 1.74795e-09 7.73091 5.47488 0.417314 3.04481e-10 -1.17794e-09 1.74797e-09 2.90554 0.965183 0.102902 3.04489e-10 -1.17794e-09 1.74797e-09 10.2786 0.731801 0.0259123 3.04487e-10 -1.17795e-09 1.74798e-09 2.22167 -0.733487 -0.20892 -6.05792e-14 -2.05853e-13 -2.42605e-13 -81.3352 30.5508 10.5233 16.0425 -8.7272 -29.7617 3.16648 -44.0572 7.81588 -6.818e-10 1.38222e-10 -1.91199e-09 -1.11317e-09 2.63725e-10 -3.32224e-09 -6.818e-10 1.38226e-10 -1.91198e-09 -7.73091 5.47488 -0.417314 -6.81799e-10 1.38227e-10 -1.91198e-09 -2.90554 0.965183 -0.102902 -6.81807e-10 1.38228e-10 -1.91199e-09 -10.2786 0.731801 -0.0259123 -6.81796e-10 1.38231e-10 -1.912e-09 -2.22167 -0.733487 0.20892 -2.03217e-16 0.0 -3.88251e-19 12.6833 -19.2187 20.7126 -0.260249 26.862 -0.0618254 0.784586 -14.5946 -0.565639 2.03217e-16 0.0 3.88251e-19 -12.9753 -54.5321 -23.7931 0.0624502 29.2467 0.234409 0.26937 -7.37293 -2.00522
